/* XPM */
static char *Free_Converter_com_glyno64_95164313[] = {
/* columns rows colors chars-per-pixel */
"64 64 142 2 ",
"   c #00182A",
".  c #001C2F",
"X  c #002033",
"o  c #002136",
"O  c #002537",
"+  c #0B2B34",
"@  c #002639",
"#  c #00273B",
"$  c #00283D",
"%  c #002A3D",
"&  c #002A3F",
"*  c #002B41",
"=  c #002C40",
"-  c #002E43",
";  c #002F46",
":  c #0F3844",
">  c #003048",
",  c #003349",
"<  c #00324A",
"1  c #013549",
"2  c #00344A",
"3  c #02364B",
"4  c #00344C",
"5  c #00364D",
"6  c #00374E",
"7  c #03394F",
"8  c #003750",
"9  c #013850",
"0  c #003951",
"q  c #013952",
"w  c #023B53",
"e  c #073C51",
"r  c #013C55",
"t  c #023C54",
"y  c #023D55",
"u  c #043E55",
"i  c #023F58",
"p  c #054058",
"a  c #07435A",
"s  c #03415C",
"d  c #03445F",
"f  c #06445E",
"g  c #1A4654",
"h  c #12485A",
"j  c #044661",
"k  c #074660",
"l  c #064A65",
"z  c #0A4860",
"x  c #0C4C63",
"c  c #094D66",
"v  c #0C4C66",
"b  c #0E4E66",
"n  c #084F6A",
"m  c #144F62",
"M  c #0B516B",
"N  c #0D5069",
"B  c #0A526D",
"V  c #0B536E",
"C  c #0D526C",
"Z  c #0F546D",
"A  c #135066",
"S  c #175367",
"D  c #1A5060",
"F  c #1D5160",
"G  c #1F5463",
"H  c #1A5365",
"J  c #1E5567",
"K  c #10526A",
"L  c #11546B",
"P  c #10566E",
"I  c #15556C",
"U  c #14566D",
"Y  c #15576D",
"T  c #1B566A",
"R  c #1B576A",
"E  c #1E586A",
"W  c #1B586C",
"Q  c #195A6F",
"!  c #1A5A6E",
"~  c #1E596C",
"^  c #1F5C6F",
"/  c #0B5571",
"(  c #0F5670",
")  c #0E5672",
"_  c #0F5A76",
"`  c #115770",
"'  c #145971",
"]  c #165A72",
"[  c #165C73",
"{  c #165D75",
"}  c #145E77",
"|  c #195970",
" . c #185A70",
".. c #195B71",
"X. c #1D5B70",
"o. c #1A5C71",
"O. c #1C5C70",
"+. c #1C5E73",
"@. c #1E5E72",
"#. c #185D74",
"$. c #195E75",
"%. c #1B5E74",
"&. c #185E76",
"*. c #185F77",
"=. c #1A5F76",
"-. c #115D79",
";. c #115F7A",
":. c #205666",
">. c #275B6B",
",. c #265C6C",
"<. c #1D6075",
"1. c #176079",
"2. c #13617D",
"3. c #17627C",
"4. c #17667F",
"5. c #186078",
"6. c #1A627A",
"7. c #1E6278",
"8. c #1E6379",
"9. c #1D637A",
"0. c #1C637B",
"q. c #1D647B",
"w. c #1F677E",
"e. c #226073",
"r. c #266072",
"t. c #256174",
"y. c #256275",
"u. c #206278",
"i. c #216378",
"p. c #216379",
"a. c #20657B",
"s. c #21657B",
"d. c #20677E",
"f. c #25677C",
"g. c #2D6679",
"h. c #186986",
"j. c #216A82",
"k. c #266A80",
"l. c #276E84",
"z. c #286D82",
"x. c #257188",
"c. c None",
/* pixels */
"c.c.c.c.c.c.c.c.w w w w w w w w w w w w w w w w w w w w w w w w w w w w w w w w w w w w w w w w w w w w w w w w w c.c.c.c.c.c.c.",
"c.c.c.c.c.c.w w w w w w w w w w w w w w w w w w w w w w w w w w w w w w w w w w w w w w w w w w w w w w w w w w w w w c.c.c.c.c.",
"c.c.c.c.w w w w w w w w w w w w w w w w w w w w w w w w w w w w w w w w w w w w w w w w w w w w w w w w w w w w w w w w c.c.c.c.",
"c.c.c.w w w w w w w w w w w w w w w w w w w w w w w w w w w w w t w w w w w w w w w w w w w w w w w w w w w w w w w w w w c.c.c.",
"c.c.w w w w w w w w w w w w w w w w w w w w w w w w w w w w t 5 < w w w w w w w w w w w w w w w w w w w w w w w w w w w w w c.c.",
"c.c.w w w w w w w w w w w w w w w w w w w w w w w w w w t 5 ; d M 8 < w t w w w w w w w w w w w w w w w w w w w w w w w w w w c.",
"c.w w w w w w w w w w w w w w w w w w w w w w w w w i 5 ; f _ W F 1.M 8 ; w t w w w w w w w w w w w w w w w w w w w w w w w w c.",
"c.w w w w w w w w w w w w w w w w w w w w w w w t 5 ; a _ $.c.c.c.c.:.} ) 8 < w t w w w w w w w w w w w w w w w w w w w w w w c.",
"c.w w w w w w w w w w w w w w w w w w w w w i 5 ; f _ %.c.c.c.c.c.c.c.c.F 1./ w ; 8 w w w w w w w w w w w w w w w w w w w w w w ",
"c.w w w w w w w w w w w w w w w w w w w t 5 ; f ;.%.c.c.c.c.c.c.c.c.c.c.c.c.G 1./ w > w w w w w w w w w w w w w w w w w w w w w ",
"c.w w w w w w w w w w w w w w w t t t 5 > d ;...c.c.c.c.c.c.c.c.c.c.c.c.c.c.c.c.G 1.n w > 8 w w w w w w w w w w w w w w w w w w ",
"c.w w w w w w w w w w w w w w w t 5 > d 2.o.c.c.c.c.c.c.c.c.c.c.c.c.c.c.c.c.c.c.c.c.u. .n w ; w w w w w w w w w w w w w w w w w ",
"c.w w w w w w w w w w w w w t 6 ; s ;.%.c.c.c.c.c.c.c.c.c.c.c.c.c.c.c.c.c.c.c.c.c.c.c.c.~ $.C w > 8 w w w w w w w w w w w w w w ",
"c.w w w w w w w w w w w t 5 ; j ;.+.c.c.c.c.c.c.c.c.c.c.c.c.c.c.l.c.c.c.c.c.c.c.c.c.c.c.c.c.E $.C w > w w w w w w w w w w w w w ",
"c.w w w w w w w w w t 5 ; j ;.+.c.c.c.c.c.c.c.c.c.c.c.c.c.c.<.x w U 7.c.c.c.c.c.c.c.c.c.c.c.c.c.E $.C w > w w w w w w w w w w w ",
"c.w w w w w w w w 5 ; j 2.o.c.c.c.c.c.c.c.c.c.c.c.c.c.c.$.x 6 # # $ a K R c.c.c.c.c.c.c.c.c.c.c.c.c.E } M w > w t w w w w w w w ",
"c.w w w w w t w < a -.o.c.c.c.c.c.c.c.c.c.c.c.c.c.c.c.h.n O X < t 5 X 5 h.<.c.c.c.c.c.c.c.c.c.c.c.c.c.c.>.$.M w < w w w w w w w ",
"c.w w w w w w w C X.c.c.c.c.c.c.c.c.c.c.c.c.c.c.c.c.c.c.E $.C w > s ;.+.c.c.c.c.c.c.c.c.c.c.c.c.c.c.c.c.c.c.c...z 8 w w w w w w ",
"c.w w w w w 2 i l.c.c.c.c.c.c.c.c.c.c.c.c.c.c.c.c.c.c.c.c.c.~  .U $.c.c.c.c.c.c.c.c.c.c.c.c.c.c.c.c.c.c.c.c.c.c.3.4 w w w w w w ",
"c.w w w w w < ; a } z.c.c.c.c.c.c.c.c.c.c.c.c.c.c.c.c.c.c.c.c.c.c.c.c.c.c.c.c.c.c.c.c.c.c.c.c.c.c.c.c.c.c.c.7.U w > 5 w w w w w ",
"c.w w w w w Y M * $ i U f.c.c.c.c.c. .U f.c.c.c.c.c.c.c.c.c.c.c.c.c.c.c.c.c.c.c.c.c.c.c.8.L i.c.c.c.c.c.7.) 5 X < _ v 8 w w w w ",
"c.w w w < v H H 3.j o X t ` y.c.7.C 5 O w ` f.c.c.c.c.c.c.c.c.c.c.c.c.c.c.c.c.c.c.c.a.x > # w ` y.c.7.U 5   $ Z $.g S i w w w w ",
"c.w w w 5 ) c.c.c.7.} s o o a c 5 # $ 5 * # t ` f.c.c.c.c.c.c.c.c.c.c.c.c.c.c.c.$.K 6 O $ 2 - $ u N 7   $ V 1.H c.c.Y i 5 w w w ",
"c.w w w 4 ) : c.c.c.c.7.} i $ # * 2 w t t w * # t ` f.c.c.c.c.c.c.c.c.c.c.c.7.C 7 O - 2 w t t w ; # # x h.D c.c.c.c.$.w w w w w ",
"c.w w w 4 ) : c.c.c.c.c.c.a.s 2 6 t t w w w t w * # t  .a.c.c.c.c.c.c.c.a.c < O $ 2 w w t t w t w < N E c.c.c.c.c.c.Y t w w w w ",
"c.w w w 5 ) : c.c.c.c.c.c.>.l 5 i w w w w w w t t w * # t U s.c.c.c.a.c ; O - 2 w t t w w w w w w 5 _ c.c.c.c.c.c.c.Y t w w w w ",
"c.w w w < ) : c.c.c.c.c.c.,.j 5 w w w w w w w w w w t w * # 5 Y 8.x 2 O $ 3 6 t t t w i w w w w w 5 Z c.c.c.c.c.c.c.Y t 8 w w w ",
"c.w w w 5 ) : c.c.c.c.c.c.,.j 5 w w w t 8 5 w w w w w w w w ; * 2 # - 2 w w i t w t 5 5 t w w w t < Z c.c.c.c.c.c.c.Y t w w w w ",
"c.w w w 5 ) : c.c.c.c.c.c.,.d 5 w w w w w f w < w t w w w t t w > 2 w t w w w t 8 ; s d 5 w w w w < Z c.c.c.c.c.c.c.Y t 8 w w w ",
"c.w w w 4 ) : c.c.c.c.c.c.,.d 5 w w w 5 z <...n 5 < w w w w w t w w w w w t 6 < w U +.W t 8 w w w 5 Z c.c.c.c.c.c.c.Y t w w w w ",
"c.w w w 4 ) : c.c.c.c.c.c.,.d 5 w w w < C c.c.^ } n 5 ; w w w w t t w t 5 < t Z 5.c.c.h l 5 w w w 4 Z c.c.c.c.c.c.c.Y w 5 w w w ",
"c.w w w 4 ) : c.c.c.c.c.c.,.d 5 w w w 2 v c.c.c.c.X.} c 5 8 t w w w w 4 w V 5.c.c.c.c.m j 6 w w w 5 Z c.c.c.c.c.c.c.Y w w w w w ",
"c.w w w 5 ) : c.c.c.c.c.c.>.j 5 w w w 4 x c.c.c.c.c.c.^ ` w w w w w 5 a 7.c.c.c.c.c.c.m z 5 w w w 4 Z c.c.c.c.c.c.c.Y t w w w w ",
"c.w w w < ) : c.c.c.c.c.c.>.j 5 w w w 4 N c.c.c.c.c.c.c.7.f 5 w w w < ) c.c.c.c.c.c.c.m j 5 w w w 4 U c.c.c.c.c.c.c.Y t w w w w ",
"c.w w w 5 ) : c.c.c.c.c.c.,.s 5 w w w 4 v c.c.c.c.c.c.c...a 5 t w w 5 N c.c.c.c.c.c.c.m z 5 t w w 4 C c.c.c.c.c.c.c.Y t 5 w w w ",
"c.w w w 4 ) : c.c.c.c.c.c.,.j 5 w w w 5 x c.c.c.c.c.c.c...a 8 w w w 4 N c.c.c.c.c.c.c.m j 5 t w w 5 Z c.c.c.c.c.c.c.Y t w w w w ",
"c.w w w 4 ) : c.c.c.c.c.c.,.j 5 w w w 4 N c.c.c.c.c.c.c. .i 5 w w w < N c.c.c.c.c.c.c.m z 5 w w w 4 C c.c.c.c.c.c.c.Y t 8 w w w ",
"c.w w w 4 ) : c.c.c.c.c.c.,.s 5 w w w 4 x c.c.c.c.c.c.c. .a 5 w w w 5 N c.c.c.c.c.c.c.m j 5 w w w 4 U c.c.c.c.c.c.c.Y w w w w w ",
"c.w w w 4 ) : c.c.c.c.c.c.>.j 5 w w w 4 N c.c.c.c.c.c.c. .u 5 w w w 5 N c.c.c.c.c.c.c.m z 5 w w w 5 C c.c.c.c.c.c.c.Y w 8 w w w ",
"c.w w w 5 ) : c.c.c.c.c.c.f.f 5 w w w 4 x c.c.c.c.c.c.c. .a 6 w w w < C c.c.c.c.c.c.c.m j 5 w w w 4 C c.c.c.c.c.c.c.Y w w w w w ",
"c.w w w 5 ) : c.c.c.c.c.3.z ; 4 w w w 5 v c.c.c.c.c.c.c...p 5 w w w 4 N c.c.c.c.c.c.c.m d 5 w t 8 < w  .s.c.c.c.c.c.Y t w w w w ",
"c.w w w < ) + c.c.c.7.C -   a M 5 > w 5 v c.c.c.c.c.c.c.W p 5 w w w 4 N c.c.c.c.c.c.c.m j w w ; i M 4 $ 5 Z s.c.c.c.' t w w w w ",
"c.w w t > C g c.3.x ;   ; ' W E 1.n 5 * x c.c.c.c.c.c.c. .p w w w w 4 N c.c.c.c.c.c.c.m f * i ) ..G 1.M * X 2 K j.c.S t 5 w w w ",
"c.w w w 6 t 3.` -   - C %.D c.c.c.X.1.j z c.c.c.c.c.c.c. .p 5 w w w 4 N c.c.c.c.c.c.c.m l U $.D c.c.c.X.1.n # X 5  .A 5 w w w w ",
"c.w w w t w 6 # * M 7.W c.c.c.c.c.c.c.R h.R c.c.c.c.c.c.W i 6 w w w 4 N c.c.c.c.c.c.c.S h.D c.c.c.c.c.c.c.W } l # # - w t w w w ",
"c.w w w t t 5 t %.c.c.c.c.c.c.c.c.c.c.c.c.c.c.c.c.c.c.c. .a 6 w w w 4 N c.c.c.c.c.c.c.c.c.c.c.c.c.c.c.c.c.c.c.>.} 4 4 w t w w w ",
"c.w w w w w 6 f W c.c.c.c.c.c.c.c.c.c.c.c.c.c.c.c.c.c.c. .a 6 w w w 4 N c.c.c.c.c.c.c.c.c.c.c.c.c.c.c.c.c.c.c.r.Z 8 t w w w w w ",
"c.w w w w t t 5 w c [ u.c.c.c.c.c.c.c.c.c.c.c.c.c.c.c.c.o.6 5 w w t ; x c.c.c.c.c.c.c.c.c.c.c.c.c.c.c.c.c.j.U i 4 w w w w w w w ",
"c.w w w w w w t w ; ; a [ a.c.c.c.c.c.c.c.c.c.c.c.c.c.c.u.V 5 < 6 < t 3.c.c.c.c.c.c.c.c.c.c.c.c.c.c.c.s.K 5 O $ 6 t w w w w w w ",
"c.w w w w w w w w w 5 $ % a  .u.c.c.c.c.c.c.c.c.c.c.c.c.c.u.} l p V 0.c.c.c.c.c.c.c.c.c.c.c.c.c.c.j.U 6 # $ 2 5 w w w w w w w w ",
"c.w w w w w w w w w t t 5 $ - a o.k.c.c.c.c.c.c.c.c.c.c.c.c.c.E $.c.c.c.c.c.c.c.c.c.c.c.c.c.c.d.L 7 # $ 2 w t t w w w w w w w w ",
"c.w w w w w w w w w w w t t 5 # # i [ a.c.c.c.c.c.c.c.c.c.c.c.c.c.c.c.c.c.c.c.c.c.c.c.c.c.8.L 7 # $ 2 6 t t t w w w w w w w w w ",
"c.w w w w w w w w w w w t w t t 6 $ $ s } r.c.c.c.c.c.c.c.c.c.c.c.c.c.c.c.c.c.c.c.c.c.q.L 6 # # 2 7 t t t w w w w w w w w w w w ",
"c.w w w w w w w w w w w w w w t t t 6 $ $ d } e.c.c.c.c.c.c.c.c.c.c.c.c.c.c.c.c.c.w.C w # # 1 7 w w t w w w w w w w w w w w w w ",
"c.w w w w w w w w w w w w w w w w w w p 6 $ $ k } e.c.c.c.c.c.c.c.c.c.c.c.c.c.w.A 2 O # 2 w t t t w w w w w w w w w w w w w w w ",
"c.w w w w w w w w w w w w w w w w w w w t t w $ $ z } >.c.c.c.c.c.c.c.c.c.d.x 1 # % 2 6 t t t w w w w w w w w w w w w w w w w w ",
"c.w w w w w w w w w w w w w w w w w w w w w t t 6 $ - z ' y.c.c.c.c.c.d.K 3 # % 2 w w t t w w w w w w w w w w w w w w w w w w w ",
"c.w w w w w w w w w w w w w w w w w w w w w w w t t 6 $ * p  .g.c.q.I 6 O $ 2 6 t t w w w w w w w w w w w w w w w w w w w w w c.",
"c.c.w w w w w w w w w w w w w w w w w w w w w w t w t t 6 $ $ a U t O $ 2 7 t t t w w w w w w w w w w w w w w w w w w w w w w c.",
"c.c.w w w w w w w w w w w w w w w w w w w w w w w w t t t t 6 - # $ 2 6 w t w w w w w w w w w w w w w w w w w w w w w w w w c.c.",
"c.c.c.w w w w w w w w w w w w w w w w w w w w w w w w w w w t t w 6 t t t w w w w w w w w w w w w w w w w w w w w w w w w w c.c.",
"c.c.c.c.w w w w w w w w w w w w w w w w w w w w w w w w w w w w t t t w w w w w w w w w w w w w w w w w w w w w w w w w w c.c.c.",
"c.c.c.c.c.w w w w w w w w w w w w w w w w w w w w w w w w w w w w w w w w w w w w w w w w w w w w w w w w w w w w w w c.c.c.c.c.",
"c.c.c.c.c.c.c.w w w w w w w w w w w w w w w w w w w w w w w w w w w w w w w w w w w w w w w w w w w w w w w w w w c.c.c.c.c.c.c."
};
