/* XPM */
static char *Free_Converter_com_glyno32_8744312[] = {
/* columns rows colors chars-per-pixel */
"32 32 83 1 ",
"  c #00283C",
". c #002A40",
"X c #002C42",
"o c #002D45",
"O c #002F47",
"+ c #013147",
"@ c #003148",
"# c #00324A",
"$ c #033549",
"% c #00334C",
"& c #00334D",
"* c #00364D",
"= c #00354E",
"- c #00354F",
"; c #00374F",
": c #05384E",
"> c #003751",
", c #003850",
"< c #003950",
"1 c #013A52",
"2 c #023B53",
"3 c #063B50",
"4 c #013C55",
"5 c #023D55",
"6 c #023E57",
"7 c #073D54",
"8 c #053E57",
"9 c #083B50",
"0 c #0C3E51",
"q c #093E54",
"w c #093F55",
"e c #0A3F54",
"r c #013D58",
"t c #023F5B",
"y c #043F58",
"u c #044059",
"i c #06425A",
"p c #02415D",
"a c #03435E",
"s c #06445D",
"d c #07445D",
"f c #0C4358",
"g c #0F455A",
"h c #0F475D",
"j c #0C485F",
"k c #0F485E",
"l c #124557",
"z c #10465A",
"x c #144658",
"c c #14465A",
"v c #134A5F",
"b c #154B5D",
"n c #154B5E",
"m c #184B5A",
"M c #184B5D",
"N c #1A4E5F",
"B c #054560",
"V c #0A4962",
"C c #0C4A61",
"Z c #0E4B62",
"A c #0A4C66",
"S c #0B4D67",
"D c #0F4D66",
"F c #0E4E67",
"G c #0F4F67",
"H c #104C63",
"J c #124C63",
"K c #164D62",
"L c #164F63",
"P c #114D65",
"I c #0E526A",
"U c #125066",
"Y c #145066",
"T c #165267",
"R c #185266",
"E c #115068",
"W c #155369",
"Q c #16556B",
"! c #195368",
"~ c #195468",
"^ c #115D77",
"/ c #1F5C71",
"( c None",
/* pixels */
"(((22222222222222222222222222(((",
"((2222222222224>;4422222222222((",
"(2222222222242%pp>%442222222222(",
"q2222222224>%rAm(Zd>%44222222222",
"222222224;;tSN(((((Pp%;442222222",
"2222224;;pAb(((((((((Py;;4422222",
"22224;%pSM(((((((((((((Pr;;22222",
"2242#rSM((((((^9$P(((((((Hi%;422",
"22,2G(((((((((Vo>Bx((((((((Yi222",
"24;>Q(((((((((((K((((((((((/y%22",
"2>8Q8;K((3Y((((((((((/qK((3>kk>2",
"2;y((P;:#oo3!((((((/qXX#::f((E%2",
"2;d((((;#y4#o3K((/fXX>82%l(((G;2",
"2;d((((i24;>4%oqfX ;2>22tx(((j;2",
"2;d((((r%>CC>%4%o;2;dP2,rz(((j%2",
"2;d((((4;%~(Rd>442yH((4;rz(((k;2",
"2;d((((r;;U(((G;;i((((y;rz(((j;2",
"2;d((((4%2U(((Y%;d((((y>4z(((j;2",
"2;d((((y;;U(((H;;i((((8;dq(((j%2",
"2;j((((2#>U(((C%;i((((4;%H(((k;2",
"2;4((Y2i4oP(((C;%i((((2;tpE((k;2",
"22yU7;0(YdI(((H;;i((((Vk(b;%Rj;2",
"222>x(((((((((C;%d((((m((((~;#22",
"22;2Y(((((((((PoOy(((((((((R8;22",
"2242#;k(((((((MSdG(((((((W:X;422",
"22224;o$j((((((((((((((W$ o44222",
"22222442X#v((((((((((Y$ O4822222",
"2222222442o;z((((((W+ +2r4222222",
"22222222244,o;z((W$ #44222222222",
"(222222222444>o:3Xo442822222222(",
"((22222222222442+4r422222222222(",
"(((22222222222224222222222222((("
};
