/* XPM */
static char *Free_Converter_com_glyno16_52294312[] = {
/* columns rows colors chars-per-pixel */
"16 16 59 1 ",
"  c #002943",
". c #072F41",
"X c #002C46",
"o c #002E47",
"O c #003149",
"+ c #00334C",
"@ c #00354D",
"# c #00364F",
"$ c #02374F",
"% c #06384A",
"& c #073A4C",
"* c #0A3B4E",
"= c #0E3C4D",
"- c #003750",
"; c #003850",
": c #003951",
"> c #023951",
", c #003852",
"< c #003A52",
"1 c #013A52",
"2 c #013B53",
"3 c #023A53",
"4 c #023B53",
"5 c #033B53",
"6 c #043A52",
"7 c #033C53",
"8 c #003B54",
"9 c #013B54",
"0 c #023B54",
"q c #003B56",
"w c #013C56",
"e c #043E56",
"r c #073F57",
"t c #0B3E54",
"y c #0A4157",
"u c #0E4054",
"i c #0C4156",
"p c #0C4157",
"a c #0B4359",
"s c #0E4358",
"d c #0C435B",
"f c #0E445A",
"g c #0B465D",
"h c #0E475D",
"j c #0F475D",
"k c #12495F",
"l c #104B62",
"z c #154C62",
"x c #144E65",
"c c #184D60",
"v c #0F5069",
"b c #145066",
"n c #145167",
"m c #135068",
"M c #155268",
"N c #185268",
"B c #18586F",
"V c #1D5B70",
"C c None",
/* pixels */
"C4474444--44444C",
"4444448ts4#44444",
"444487CCCCs4#444",
"#4-4CCCBvCCCr447",
"$4xCCCC4.CCCCl44",
"$hbbshCCCCfub=h4",
"8*ChXooNV+ +#CC#",
"8%CB+xgoXrN84CC+",
"4*Cb+CCy4CC86CC#",
"8*CmOCC74CC4$CC#",
"4ysisCC8$CC7sbk#",
"48kCCCC84CCCCc#4",
"-4#iCCCC=CCCk#44",
"648++tCCCCj+o444",
"68484#+zx+O88444",
"C788444+o474844C"
};
